<!-- Five Elements (Wu Xing) Cycle Diagram -->
<!-- Shows both Generating Cycle (outer arrows) and Controlling Cycle (inner star) -->
<!-- Arrowheads are inline polygons (PDF-safe, no marker-end dependency) -->
<svg xmlns="http://www.w3.org/2000/svg" viewBox="0 0 400 410" width="400" height="410">
  <defs>
    <!-- Gradients for each element -->
    <radialGradient id="woodGrad" cx="50%" cy="50%" r="50%">
      <stop offset="0%" style="stop-color:#4ade80"/>
      <stop offset="100%" style="stop-color:#16a34a"/>
    </radialGradient>
    <radialGradient id="fireGrad" cx="50%" cy="50%" r="50%">
      <stop offset="0%" style="stop-color:#f87171"/>
      <stop offset="100%" style="stop-color:#dc2626"/>
    </radialGradient>
    <radialGradient id="earthGrad" cx="50%" cy="50%" r="50%">
      <stop offset="0%" style="stop-color:#fbbf24"/>
      <stop offset="100%" style="stop-color:#d97706"/>
    </radialGradient>
    <radialGradient id="metalGrad" cx="50%" cy="50%" r="50%">
      <stop offset="0%" style="stop-color:#e5e7eb"/>
      <stop offset="100%" style="stop-color:#9ca3af"/>
    </radialGradient>
    <radialGradient id="waterGrad" cx="50%" cy="50%" r="50%">
      <stop offset="0%" style="stop-color:#60a5fa"/>
      <stop offset="100%" style="stop-color:#2563eb"/>
    </radialGradient>
  </defs>
  
  <!-- Background circle -->
  <circle cx="200" cy="195" r="175" fill="#fef9e7" stroke="#d4a574" stroke-width="2"/>

  <!-- Generating Cycle Arrows (Outer - Green) -->
  <!-- Paths are segments of a circle centered at (200, 195) -->
  <path d="M 83.2 127.3 A 135 135 0 0 1 157.5 66.9" fill="none" stroke="#059669" stroke-width="3"/>
  <polygon points="157.5,66.9 140.5,66.2 144.2,77.6" fill="#059669"/>
  <path d="M 242.5 66.9 A 135 135 0 0 1 316.8 127.3" fill="none" stroke="#059669" stroke-width="3"/>
  <polygon points="316.8,127.3 314.0,110.4 303.6,116.5" fill="#059669"/>
  <path d="M 334.1 210.4 A 135 135 0 0 1 298.4 287.5" fill="none" stroke="#059669" stroke-width="3"/>
  <polygon points="298.4,287.5 313.7,279.9 305.0,271.7" fill="#059669"/>
  <path d="M 223.7 327.9 A 135 135 0 0 1 176.3 327.9" fill="none" stroke="#059669" stroke-width="3"/>
  <polygon points="176.3,327.9 191.0,336.6 193.1,324.8" fill="#059669"/>
  <path d="M 101.6 287.5 A 135 135 0 0 1 65.9 210.4" fill="none" stroke="#059669" stroke-width="3"/>
  <polygon points="65.9,210.4 61.8,227.0 73.7,225.6" fill="#059669"/>

  <!-- Controlling Arrows (Inner Star - Red) -->
  <line x1="122.0" y1="170.0" x2="278.0" y2="170.0" stroke="#dc2626" stroke-width="2" stroke-dasharray="5,3"/>
  <polygon points="278.0,170.0 262.0,164.0 262.0,176.0" fill="#dc2626"/>
  <line x1="286.9" y1="195.9" x2="168.1" y2="289.1" stroke="#dc2626" stroke-width="2" stroke-dasharray="5,3"/>
  <polygon points="168.1,289.1 184.4,283.9 176.9,274.5" fill="#dc2626"/>
  <line x1="145.2" y1="274.3" x2="189.8" y2="95.7" stroke="#dc2626" stroke-width="2" stroke-dasharray="5,3"/>
  <polygon points="189.8,95.7 180.1,109.8 191.8,112.7" fill="#dc2626"/>
  <line x1="210.2" y1="95.7" x2="254.8" y2="274.3" stroke="#dc2626" stroke-width="2" stroke-dasharray="5,3"/>
  <polygon points="254.8,274.3 256.8,257.3 245.1,260.2" fill="#dc2626"/>
  <line x1="231.9" y1="289.1" x2="113.1" y2="195.9" stroke="#dc2626" stroke-width="2" stroke-dasharray="5,3"/>
  <polygon points="113.1,195.9 121.9,210.5 129.4,201.1" fill="#dc2626"/>
  <!-- Element Circles -->
  <!-- Wood (East - Upper Left) -->
  <circle cx="80" cy="170" r="40" fill="url(#woodGrad)" stroke="#166534" stroke-width="2"/>
  <text x="80" y="163" text-anchor="middle" fill="white" font-size="20" font-weight="bold">木</text>
  <text x="80" y="183" text-anchor="middle" fill="white" font-size="11">Wood</text>
  
  <!-- Fire (South - Top) -->
  <circle cx="200" cy="55" r="40" fill="url(#fireGrad)" stroke="#991b1b" stroke-width="2"/>
  <text x="200" y="48" text-anchor="middle" fill="white" font-size="20" font-weight="bold">火</text>
  <text x="200" y="68" text-anchor="middle" fill="white" font-size="11">Fire</text>
  
  <!-- Earth (Center - Upper Right) -->
  <circle cx="320" cy="170" r="40" fill="url(#earthGrad)" stroke="#92400e" stroke-width="2"/>
  <text x="320" y="163" text-anchor="middle" fill="white" font-size="20" font-weight="bold">土</text>
  <text x="320" y="183" text-anchor="middle" fill="white" font-size="11">Earth</text>
  
  <!-- Metal (West - Lower Right) -->
  <circle cx="265" cy="315" r="40" fill="url(#metalGrad)" stroke="#4b5563" stroke-width="2"/>
  <text x="265" y="308" text-anchor="middle" fill="#374151" font-size="20" font-weight="bold">金</text>
  <text x="265" y="328" text-anchor="middle" fill="#374151" font-size="11">Metal</text>
  
  <!-- Water (North - Lower Left) -->
  <circle cx="135" cy="315" r="40" fill="url(#waterGrad)" stroke="#1e40af" stroke-width="2"/>
  <text x="135" y="308" text-anchor="middle" fill="white" font-size="20" font-weight="bold">水</text>
  <text x="135" y="328" text-anchor="middle" fill="white" font-size="11">Water</text>
  
  <!-- Legend - Centered, wider box, smaller font -->
  <rect x="85" y="375" width="230" height="26" rx="5" fill="white" stroke="#d4a574" stroke-width="1"/>
  <line x1="100" y1="388" x2="125" y2="388" stroke="#059669" stroke-width="3"/>
  <polygon points="126,384 132,388 126,392" fill="#059669"/>
  <text x="137" y="392" fill="#059669" font-size="9" font-weight="600">Generating</text>
  <line x1="210" y1="388" x2="235" y2="388" stroke="#dc2626" stroke-width="2" stroke-dasharray="5,3"/>
  <polygon points="236,384 242,388 236,392" fill="#dc2626"/>
  <text x="247" y="392" fill="#dc2626" font-size="9" font-weight="600">Controlling</text>
</svg>
